<svg xmlns="http://www.w3.org/2000/svg" viewBox="0 0 50 50" width="150px" height="150px">
  <path d="M 25 3 A 1.0001 1.0001 0 0 0 24.742188 3.03125 C 23.867327 3.1078106 23.005754 3.5513163 22.470703 4.3652344 A 1.0005382 1.0005382 0 1 0 24.142578 5.4648438 C 24.356828 5.1389274 24.668757 5 25 5 C 25.331243 5 25.643172 5.1389275 25.857422 5.4648438 A 1.0005382 1.0005382 0 1 0 27.529297 4.3652344 C 26.996261 3.5543817 26.139034 3.1123779 25.267578 3.0332031 A 1.0001 1.0001 0 0 0 25.261719 3.03125 A 1.0001 1.0001 0 0 0 25 3 z M 28.851562 7.4921875 L 28.007812 7.7910156 L 27.740234 8.6464844 L 27.859375 8.9785156 L 29.890625 12.550781 L 30.634766 13.048828 L 31.478516 12.75 L 31.746094 11.894531 L 31.628906 11.5625 L 29.597656 7.9902344 L 28.851562 7.4921875 z M 21.498047 7.5097656 L 20.626953 7.71875 L 20.402344 7.9902344 L 18.371094 11.5625 L 18.324219 12.457031 L 19.013672 13.029297 L 19.884766 12.822266 L 20.109375 12.550781 L 22.140625 8.9785156 L 22.1875 8.0839844 L 21.498047 7.5097656 z M 32.914062 14.636719 L 32.070312 14.933594 L 31.802734 15.791016 L 31.919922 16.123047 L 33.951172 19.695312 L 34.697266 20.193359 L 35.541016 19.894531 L 35.808594 19.039062 L 35.691406 18.705078 L 33.660156 15.134766 L 32.914062 14.636719 z M 17.4375 14.654297 L 16.566406 14.863281 L 16.339844 15.134766 L 14.308594 18.707031 L 14.261719 19.601562 L 14.951172 20.173828 L 15.822266 19.966797 L 16.046875 19.695312 L 18.078125 16.123047 L 18.125 15.228516 L 17.4375 14.654297 z M 23.998047 17 C 23.446047 17 23.001953 17.448 23.001953 18 L 23 32 C 23 32.552 23.444094 33 23.996094 33 L 26 33 C 26.552 33 26.998047 32.552 26.998047 32 L 27 18 C 27 17.448 26.553953 17 26.001953 17 L 23.998047 17 z M 36.976562 21.779297 L 36.130859 22.078125 L 35.865234 22.933594 L 35.982422 23.265625 L 38.013672 26.837891 L 38.759766 27.335938 L 39.603516 27.037109 L 39.869141 26.181641 L 39.751953 25.849609 L 37.720703 22.277344 L 36.976562 21.779297 z M 13.375 21.798828 L 12.503906 22.007812 L 12.277344 22.279297 L 10.248047 25.851562 L 10.201172 26.746094 L 10.888672 27.318359 L 11.759766 27.109375 L 11.986328 26.839844 L 14.017578 23.267578 L 14.064453 22.373047 L 13.375 21.798828 z M 41.039062 28.923828 L 40.193359 29.222656 L 39.927734 30.078125 L 40.044922 30.410156 L 42.076172 33.982422 L 42.820312 34.480469 L 43.666016 34.181641 L 43.931641 33.326172 L 43.814453 32.994141 L 41.783203 29.421875 L 41.039062 28.923828 z M 9.3125 28.943359 L 8.4414062 29.152344 L 8.2167969 29.421875 L 6.1855469 32.994141 L 6.1386719 33.888672 L 6.8261719 34.462891 L 7.6992188 34.253906 L 7.9238281 33.982422 L 9.9550781 30.412109 L 10.001953 29.515625 L 9.3125 28.943359 z M 23.998047 36 C 23.446047 36 23 36.448 23 37 L 23 39 C 23 39.552 23.445047 40 23.998047 40 L 26.001953 40 C 26.553953 40 27 39.552 27 39 L 27 37 C 27 36.448 26.554953 36 26.001953 36 L 23.998047 36 z M 45.101562 36.068359 L 44.255859 36.367188 L 43.990234 37.222656 L 44.107422 37.554688 L 46.138672 41.126953 L 46.882812 41.625 L 47.728516 41.326172 L 47.994141 40.470703 L 47.876953 40.138672 L 45.845703 36.566406 L 45.101562 36.068359 z M 5.2519531 36.087891 L 4.3789062 36.296875 L 4.1542969 36.566406 L 2.1230469 40.138672 L 2.0761719 41.033203 L 2.765625 41.607422 L 3.6367188 41.398438 L 3.8613281 41.126953 L 5.8925781 37.554688 L 5.9394531 36.660156 L 5.2519531 36.087891 z M 2.5761719 43.363281 L 1.7734375 43.763672 L 1.6152344 44.646484 L 1.7734375 44.960938 L 1.7851562 44.978516 L 1.9609375 45.160156 L 2.3671875 45.488281 L 2.59375 45.625 L 3.0839844 45.839844 L 3.3476562 45.914062 L 3.9082031 45.990234 L 4.0449219 46 L 6.5097656 46 L 7.3105469 45.597656 L 7.46875 44.716797 L 6.8554688 44.0625 L 6.5097656 44 L 4.109375 44 L 3.7539062 43.951172 L 3.5175781 43.845703 L 3.2148438 43.601562 L 3.1679688 43.660156 L 2.5761719 43.363281 z M 47.771484 43.423828 L 46.880859 43.525391 L 46.791016 43.609375 L 46.785156 43.601562 L 46.482422 43.845703 L 46.246094 43.951172 L 45.890625 44 L 43.492188 44 L 42.689453 44.402344 L 42.533203 45.283203 L 43.144531 45.9375 L 43.492188 46 L 45.955078 46 L 46.091797 45.990234 L 46.652344 45.914062 L 46.916016 45.839844 L 47.40625 45.625 L 47.632812 45.488281 L 48.039062 45.160156 L 48.214844 44.978516 L 48.228516 44.960938 L 48.384766 44.078125 L 47.771484 43.423828 z M 10.619141 44 L 9.8183594 44.402344 L 9.6601562 45.283203 L 10.271484 45.9375 L 10.619141 46 L 14.728516 46 L 15.529297 45.597656 L 15.6875 44.716797 L 15.074219 44.0625 L 14.728516 44 L 10.619141 44 z M 18.835938 44 L 18.035156 44.402344 L 17.876953 45.283203 L 18.490234 45.9375 L 18.835938 46 L 22.945312 46 L 23.746094 45.597656 L 23.904297 44.716797 L 23.292969 44.0625 L 22.945312 44 L 18.835938 44 z M 27.054688 44 L 26.253906 44.402344 L 26.095703 45.283203 L 26.707031 45.9375 L 27.054688 46 L 31.164062 46 L 31.964844 45.597656 L 32.123047 44.716797 L 31.511719 44.0625 L 31.164062 44 L 27.054688 44 z M 35.273438 44 L 34.472656 44.402344 L 34.314453 45.283203 L 34.925781 45.9375 L 35.273438 46 L 39.382812 46 L 40.183594 45.597656 L 40.341797 44.716797 L 39.728516 44.0625 L 39.382812 44 L 35.273438 44 z" fill="#000000" />
</svg>